<svg width="49" height="92" viewBox="0 0 49 92" fill="none" xmlns="http://www.w3.org/2000/svg">
<path fill-rule="evenodd" clip-rule="evenodd" d="M25.347 2.25L27.2477 4.5H23.5421H19.8366L20.5829 3.25L21.3282 2L17.3224 5.5L13.3155 9L13.6458 9.421L13.976 9.841L16.4933 7.471L19.0105 5.101L23.4733 5.376L27.9361 5.651V4.731V3.81L25.6912 1.905L23.4464 0L25.347 2.25ZM13.8483 15.223L16.2239 15.673L10.8552 21.337L5.48746 27L11.2243 21.534L16.9612 16.068V15.284V14.5L14.2175 14.636L11.4738 14.772L13.8483 15.223ZM34.8782 20.75L39.326 25.5H39.6174H39.9087V25.208V24.916L35.1695 20.458L30.4304 16L34.8782 20.75ZM1.37886 32L1.38185 44L1.73704 37.711L2.09222 31.422L1.73404 25.711L1.37487 20L1.37886 32ZM32.9247 32.381V33.19L34.9261 35.006L36.9275 36.821L37.2218 36.411L37.5152 36L35.2204 33.786L32.9247 31.571V32.381ZM29.1832 48.189L30.9292 48.647L32.6752 48.189L34.4212 47.732H30.9292H27.4372L29.1832 48.189ZM7.98175 53.335V54.745L9.72775 53.405L11.4738 52.066L11.8359 51.837L12.1981 51.607L10.0899 51.766L7.98175 51.926V53.335ZM40.3447 65.75L37.4144 69L40.657 66.063L43.8996 63.126V62.813V62.5H43.5873H43.275L40.3447 65.75ZM2.74373 76.206L4.9886 76.639L7.23346 76.206L9.47832 75.772H4.9886H0.498871L2.74373 76.206ZM32.7171 80.176L34.0052 80.694L32.7171 82.258L31.4281 83.821L33.6081 82.461L35.7891 81.1L35.2952 80.3L34.8024 79.5L33.1152 79.579L31.4281 79.658L32.7171 80.176ZM16.609 85.807L18.345 88.113L20.8952 89.961L23.4464 91.808L19.5024 87.654L15.5584 83.5H15.2152H14.873L16.609 85.807Z" fill="#EEEEF1"/>
<path fill-rule="evenodd" clip-rule="evenodd" d="M17.7095 5.83101L12.9703 10.881V11.19V11.5H15.9286H18.8868L19.9962 9.42201L21.1057 7.34401L20.561 5.92201L20.0172 4.50001H23.6H27.1828L26.0713 3.15801L24.9599 1.81601L25.4079 1.36801L25.8548 0.919006L24.1517 0.850006L22.4486 0.781006L17.7095 5.83101ZM28.6844 9.21601L25.9406 9.63301L25.9466 10.316L25.9516 11L29.9784 11.153L34.0052 11.305L32.8438 9.90301L31.6825 8.50001L31.5558 8.65001L31.4281 8.80001L28.6844 9.21601ZM4.6763 17.305L1.99543 20.109V31.844V43.578L10.7255 43.289L19.4555 43L19.3517 39.36L19.247 35.719L22.8437 35.946L26.4395 36.174L29.6521 33.809L32.8648 31.444L37.135 35.768L41.4053 40.092L43.6322 41.935L45.8601 43.778L45.5847 37.621L45.3103 31.464L38.1198 24.209L30.9292 16.953V15.851V14.75H28.4349H25.9406L25.8229 18.375L25.7042 22L25.9087 23.5L26.1132 25L28.0229 27.064L29.9315 29.129V29.814V30.5H17.46H4.98858V29.805V29.109L7.73231 26.07L10.476 23.031L7.98174 24.983L5.48744 26.934L10.8023 21.358L16.1171 15.781L12.9224 15.14L9.72774 14.5H8.54245H7.35716L4.6763 17.305ZM8.70508 49.442L8.19924 51.384L8.72005 51.907L9.24185 52.43L10.9889 51.493L12.7359 50.556L13.3205 49.028L13.9052 47.5H11.5586H9.21192L8.70508 49.442ZM25.9406 55.453V63.621L29.6821 63.31L33.4235 63V55.751V48.501H31.2605L29.0974 48.5L27.519 47.893L25.9406 47.286V55.453ZM0 69.25V76L8.81483 75.911L17.6287 75.823L18.8439 75.07L20.0581 74.317L19.7568 68.411L19.4555 62.505L9.72774 62.503L0 62.5V69.25ZM43.4835 63.25L42.7352 64H41.5719H40.4075V65.142V66.285L35.9178 70.293L31.4281 74.301L32.1165 75.007L32.8059 75.714L38.6017 75.916L44.3984 76.118L45.6456 75.702L46.8927 75.286V68.893V62.5H45.5627H44.2318L43.4835 63.25ZM12.9853 80.709L13.0012 82L13.968 83.5L14.9348 85L14.9508 84.042L14.9658 83.084L19.2929 87.34L23.6209 91.597L24.894 90.06L26.1671 88.522L26.9384 89L27.7096 89.478L28.2543 87.388L28.7991 85.299L29.6422 85.821L30.4842 86.342L32.1155 83.494L33.7458 80.646L32.327 80.1L30.9073 79.554L27.8702 80.163L24.8332 80.772L25.2921 81.969L25.7501 83.167H22.8377H19.9254L20.4442 81.529L20.962 79.892L16.9662 79.655L12.9703 79.419L12.9853 80.709Z" fill="#FEFEFE"/>
<path fill-rule="evenodd" clip-rule="evenodd" d="M47.22 69L47.2279 76L47.621 72.228L48.0131 68.455L47.6131 65.228L47.212 62L47.22 69Z" fill="#AAAAAA"/>
<path fill-rule="evenodd" clip-rule="evenodd" d="M8.73001 30.232L12.9703 30.615L17.2106 30.232L21.4509 29.849H12.9703H4.48972L8.73001 30.232Z" fill="black"/>
</svg>
